<?xml version="1.0" encoding="UTF-8" standalone="no"?>
<svg
   xmlns:dc="http://purl.org/dc/elements/1.1/"
   xmlns:cc="http://creativecommons.org/ns#"
   xmlns:rdf="http://www.w3.org/1999/02/22-rdf-syntax-ns#"
   xmlns:svg="http://www.w3.org/2000/svg"
   xmlns="http://www.w3.org/2000/svg"
   xml:space="preserve"
   style="enable-background:new 0 0 322.5 150;"
   viewBox="0 0 322.5 150"
   y="0px"
   x="0px"
   id="Layer_1"
   version="1.1"><metadata
   id="metadata115"><rdf:RDF><cc:Work
       rdf:about=""><dc:format>image/svg+xml</dc:format><dc:type
         rdf:resource="http://purl.org/dc/dcmitype/StillImage" /></cc:Work></rdf:RDF></metadata><defs
   id="defs113" />
<style
   id="style2"
   type="text/css">
	.st0{fill-rule:evenodd;clip-rule:evenodd;fill:#60489D;}
	.st1{fill-rule:evenodd;clip-rule:evenodd;fill:#00AEEF;}
	.st2{fill-rule:evenodd;clip-rule:evenodd;fill:#FFFFFF;}
	.st3{fill:#FFFFFF;}
</style>
<g
   id="g18">
	<path
   id="path4"
   d="M906.5,53.5h103.3c5.7,0,10.3,4.7,10.3,10.3v103.9c0,5.7-4.7,10.3-10.3,10.3h-83.5l-23.6,23.6   c-5.3,4.7-6.5-0.7-6.5-3c0-1.4,0-0.2,0-0.4V178h0V63.7C896.2,58.1,900.8,53.5,906.5,53.5L906.5,53.5L906.5,53.5z"
   class="st0" />
	<path
   id="path6"
   d="M708.1,53.5h173.6c5.5,0,10.1,4.5,10.1,10.1V177c0,0.1,0,0.1,0,0.2v21.3c0,0.1,0,0.3,0,0.4   c0,2.6-1.8,6.9-6.2,3.2l-25.3-24H708.1c-5.8,0-10.5-4.7-10.5-10.5V64C697.6,58.2,702.3,53.5,708.1,53.5L708.1,53.5L708.1,53.5z"
   class="st1" />
	<path
   id="path8"
   d="M931.4,113.2c-0.4,0.1-1,0.2-1.6,0.2c-0.6,0.1-1.2,0.1-1.9,0.2c-0.7,0-1.3,0.1-1.9,0.1c-1,0-1.8-0.1-2.6-0.2   c-0.7-0.2-1.4-0.5-1.9-0.9c-0.5-0.4-0.9-1.1-1.1-1.9c-0.2-0.8-0.4-1.9-0.4-3.3v-0.8c0-1.6,0.1-3,0.4-4c0.3-1,0.7-1.8,1.2-2.4   c0.5-0.6,1.1-1,1.7-1.2c0.7-0.2,1.4-0.3,2.2-0.3c1.1,0,2,0.1,2.7,0.4c0.7,0.3,1.3,0.7,1.8,1.4c0.5,0.7,0.8,1.7,1,2.9   c0.2,1.3,0.3,2.9,0.3,4.9V113.2L931.4,113.2z M946.7,124v-15.9c0-4.7-0.8-8.6-2.5-11.8c-1.7-3.2-4.1-5.6-7.2-7.2   c-3.1-1.6-6.9-2.5-11.4-2.5c-3.5,0-6.5,0.5-9.1,1.4c-2.6,0.9-4.8,2.3-6.5,4c-1.7,1.7-3.1,3.8-3.9,6.2c-0.9,2.4-1.3,5.1-1.3,8.2v0.8   c0,3.2,0.4,5.9,1.2,8.1c0.8,2.2,1.9,3.9,3.5,5.2c1.6,1.3,3.5,2.2,5.9,2.8c2.3,0.6,5.1,0.9,8.3,0.8c0.6,0,1.2,0,2-0.1   c0.7-0.1,1.5-0.1,2.3-0.2c0.8-0.1,1.5-0.2,2.1-0.3c0.6-0.1,1.2-0.2,1.5-0.2v0.5c0,1.8-0.1,3.2-0.3,4.4c-0.2,1.2-0.7,2.1-1.3,2.7   c-0.6,0.7-1.5,1.1-2.6,1.4c-1.1,0.3-2.5,0.4-4.2,0.4c-1.5,0-3.1-0.1-4.8-0.2c-1.7-0.1-3.3-0.2-4.8-0.4c-1.6-0.2-2.9-0.3-4.2-0.5   c-0.1,0-0.1,0-0.2,0c0,0-0.1,0-0.2,0c-0.4,0-0.8,0.1-1,0.4c-0.2,0.3-0.4,0.7-0.4,1.2v8.1c0,0.5,0.1,0.8,0.3,1.1   c0.2,0.3,0.7,0.5,1.4,0.7c1.8,0.5,4.1,1,6.8,1.4c2.7,0.4,5.8,0.6,9.3,0.6c3,0,5.8-0.4,8.4-1.2c2.6-0.8,4.9-2,6.8-3.7   c2-1.7,3.5-3.9,4.6-6.6C946.1,131.1,946.7,127.8,946.7,124L946.7,124L946.7,124z"
   class="st2" />
	<path
   id="path10"
   d="M989.9,96.5v-7.1c0-0.6-0.2-1.1-0.6-1.4c-0.4-0.4-0.9-0.6-1.5-0.6h-34.6c-0.4,0-0.8,0.1-1.1,0.4   c-0.3,0.3-0.5,0.6-0.5,1.1v9.5c0,0.4,0.2,0.8,0.5,1c0.3,0.3,0.7,0.4,1.1,0.4h19c0.1,0,0.3,0,0.4,0.1c0.2,0.1,0.3,0.2,0.3,0.3v0.1   l-20.1,42.6c0,0.1-0.1,0.2-0.1,0.2c0,0.1-0.1,0.2-0.1,0.3c0,0.3,0.1,0.6,0.4,0.8c0.3,0.2,0.7,0.3,1.1,0.3h13.2   c0.5,0,0.8-0.2,1.1-0.4c0.3-0.3,0.5-0.6,0.7-1.1l19.7-43.1c0.3-0.6,0.5-1.1,0.7-1.7C989.8,97.7,989.9,97.1,989.9,96.5L989.9,96.5   L989.9,96.5z"
   class="st2" />
	<path
   id="path12"
   d="M760.9,119.4c0,3.9-0.7,6.8-2.2,8.8c-1.5,2-3.6,3-6.4,3c-2.8,0-4.9-1-6.4-3c-1.5-2-2.2-4.9-2.2-8.8v-6.7   c0-3.9,0.8-6.8,2.2-8.8c1.5-2,3.6-2.9,6.4-2.9c2.8,0,4.9,1,6.4,2.9c1.4,2,2.2,4.9,2.2,8.8V119.4L760.9,119.4z M776.3,119.4v-6.7   c0-5.1-0.9-9.5-2.8-13.3c-1.8-3.7-4.5-6.6-8.1-8.6c-3.6-2-7.9-3-13.1-3.1c-5.2,0-9.6,1.1-13.2,3.1c-3.6,2-6.3,4.9-8.1,8.6   c-1.9,3.7-2.8,8.1-2.8,13.3v6.7c0,5.1,0.9,9.5,2.8,13.2c1.8,3.7,4.6,6.6,8.1,8.6c3.6,2,8,3,13.2,3.1c5.2,0,9.6-1,13.1-3.1   c3.6-2,6.3-4.9,8.1-8.6C775.4,128.9,776.3,124.5,776.3,119.4L776.3,119.4L776.3,119.4z"
   class="st2" />
	<path
   id="path14"
   d="M830,141.9v-32c0-3-0.2-5.9-0.7-8.5c-0.5-2.6-1.3-4.9-2.6-6.9c-1.2-2-3-3.5-5.2-4.7c-2.2-1.1-5.1-1.7-8.5-1.7   c-2,0-3.9,0.1-5.6,0.5c-1.7,0.3-3.4,0.8-5,1.6c-1.6,0.7-3.3,1.7-5,3v-2.3c0-0.5-0.2-1-0.6-1.4c-0.4-0.4-0.8-0.5-1.4-0.6h-10.7   c-0.5,0-1,0.2-1.4,0.6c-0.4,0.4-0.5,0.8-0.6,1.4v51c0,0.5,0.2,1,0.6,1.4c0.4,0.4,0.9,0.6,1.4,0.6h11.6c0.5,0,1-0.2,1.4-0.6   c0.4-0.4,0.5-0.9,0.6-1.4v-37.8c1.6-0.9,3.2-1.6,4.7-2.2c1.5-0.6,2.9-0.9,4.3-0.9c1.9,0,3.4,0.3,4.4,0.8c1,0.6,1.7,1.5,2.1,2.8   c0.4,1.3,0.6,3.1,0.5,5.3v32c0,0.5,0.2,1,0.6,1.4c0.4,0.4,0.8,0.6,1.4,0.6H828c0.5,0,1-0.2,1.4-0.6   C829.8,142.9,830,142.4,830,141.9L830,141.9L830,141.9z"
   class="st2" />
	<path
   id="path16"
   d="M884,118.6V113c0-3.7-0.5-7-1.5-10.1c-1-3.1-2.5-5.7-4.5-8c-2-2.3-4.5-4-7.4-5.3c-3-1.2-6.4-1.9-10.4-1.9   c-5.1,0-9.5,1.1-13.1,3.1c-3.6,2.1-6.4,5-8.3,8.7c-1.9,3.8-2.9,8.3-2.9,13.5v6.7c0,3.7,0.5,6.9,1.4,9.7c0.9,2.8,2.2,5.1,3.8,7   c1.6,1.9,3.4,3.5,5.5,4.7c2.1,1.2,4.3,2,6.6,2.6c2.3,0.5,4.6,0.8,7,0.8c2.8,0,5.3-0.1,7.5-0.3c2.2-0.2,4.3-0.4,6.3-0.8   c2-0.3,4-0.8,6-1.3c0.8-0.2,1.3-0.5,1.6-0.9c0.3-0.4,0.4-1,0.4-1.7v-7.3c0-0.5-0.2-0.9-0.5-1.2c-0.3-0.2-0.8-0.4-1.3-0.4   c-0.1,0-0.2,0-0.3,0c-1,0.1-2.2,0.2-3.7,0.3c-1.5,0.1-3,0.2-4.7,0.3c-1.7,0.1-3.4,0.2-5.2,0.2c-1.7,0-3.4,0.1-4.9,0.1   c-1.9,0-3.5-0.3-4.8-0.9c-1.3-0.6-2.3-1.4-3-2.3c-0.8-1-1.3-2.1-1.6-3.4c-0.3-1.2-0.5-2.6-0.5-3.9v-0.2H882c0.6,0,1.1-0.2,1.5-0.6   C883.8,119.9,884,119.3,884,118.6L884,118.6z M868.8,111.3h-17.5v-0.4c0-2.3,0.4-4.3,1.1-5.9c0.7-1.6,1.8-2.8,3.1-3.6   c1.3-0.8,2.9-1.2,4.7-1.2c2.7,0,4.8,0.9,6.4,2.7c1.5,1.8,2.3,4.5,2.3,8V111.3L868.8,111.3z"
   class="st3" />
</g>
<g
   id="g92">
	<g
   id="g54">
		<g
   id="g22">
			<rect
   id="rect20"
   height="45.8"
   width="49.9"
   class="st1"
   y="326.7"
   x="625" />
		</g>
		<g
   id="g52">
			<path
   id="path24"
   d="M689.5,354.5c-0.5,0.2-1.5,0.5-2.8,0.5c-3,0-5.2-1.9-5.2-5.3c0-3.3,2.2-5.5,5.5-5.5c1.3,0,2.1,0.3,2.5,0.5l-0.3,1.1     c-0.5-0.3-1.3-0.4-2.1-0.4c-2.5,0-4.1,1.6-4.1,4.3c0,2.6,1.5,4.2,4.1,4.2c0.8,0,1.7-0.2,2.2-0.4L689.5,354.5z" />
			<path
   id="path26"
   d="M690.9,348.6c0-0.6,0.4-1,0.9-1c0.5,0,0.9,0.4,0.9,1c0,0.5-0.4,1-0.9,1C691.3,349.5,690.9,349.1,690.9,348.6z      M690.9,354.1c0-0.6,0.4-1,0.9-1c0.5,0,0.9,0.4,0.9,1c0,0.5-0.4,1-0.9,1C691.3,355.1,690.9,354.6,690.9,354.1z" />
			<path
   id="path28"
   d="M700.3,346L700.3,346l-1.8,1l-0.3-1l2.2-1.2h1.2v10.2h-1.3V346z" />
			<path
   id="path30"
   d="M712.1,349.7c0,3.5-1.3,5.4-3.5,5.4c-2,0-3.3-1.9-3.4-5.2c0-3.4,1.5-5.3,3.5-5.3C710.9,344.5,712.1,346.5,712.1,349.7z      M706.6,349.8c0,2.6,0.8,4.1,2.1,4.1c1.4,0,2.1-1.6,2.1-4.2c0-2.5-0.6-4.1-2.1-4.1C707.5,345.6,706.6,347.1,706.6,349.8z" />
			<path
   id="path32"
   d="M720.1,349.7c0,3.5-1.3,5.4-3.5,5.4c-2,0-3.3-1.9-3.4-5.2c0-3.4,1.5-5.3,3.5-5.3C718.9,344.5,720.1,346.5,720.1,349.7z      M714.6,349.8c0,2.6,0.8,4.1,2.1,4.1c1.4,0,2.1-1.6,2.1-4.2c0-2.5-0.6-4.1-2.1-4.1C715.5,345.6,714.6,347.1,714.6,349.8z" />
			<path
   id="path34"
   d="M740.7,350.3c-0.1-1.5-0.2-3.2-0.2-4.6h0c-0.4,1.2-0.8,2.5-1.3,4l-1.9,5.1h-1l-1.7-5c-0.5-1.5-0.9-2.8-1.2-4.1h0     c0,1.3-0.1,3.1-0.2,4.7l-0.3,4.5h-1.3l0.7-10.5h1.7l1.8,5.1c0.4,1.3,0.8,2.5,1.1,3.6h0c0.3-1.1,0.6-2.2,1.1-3.6l1.9-5.1h1.7     l0.7,10.5H741L740.7,350.3z" />
			<path
   id="path36"
   d="M744.1,348.6c0-0.6,0.4-1,0.9-1c0.5,0,0.9,0.4,0.9,1c0,0.5-0.4,1-0.9,1C744.4,349.5,744.1,349.1,744.1,348.6z      M744.1,354.1c0-0.6,0.4-1,0.9-1c0.5,0,0.9,0.4,0.9,1c0,0.5-0.4,1-0.9,1C744.4,355.1,744.1,354.6,744.1,354.1z" />
			<path
   id="path38"
   d="M757.3,349.7c0,3.5-1.3,5.4-3.5,5.4c-2,0-3.3-1.9-3.4-5.2c0-3.4,1.5-5.3,3.5-5.3C756,344.5,757.3,346.5,757.3,349.7z      M751.7,349.8c0,2.6,0.8,4.1,2.1,4.1c1.4,0,2.1-1.6,2.1-4.2c0-2.5-0.6-4.1-2.1-4.1C752.6,345.6,751.7,347.1,751.7,349.8z" />
			<path
   id="path40"
   d="M770.6,354.9v-4.5l-3.3-6.1h1.5l1.5,2.9c0.4,0.8,0.7,1.4,1,2.2h0c0.3-0.7,0.7-1.4,1.1-2.2l1.5-2.9h1.5l-3.5,6.1v4.5     H770.6z" />
			<path
   id="path42"
   d="M775.8,348.6c0-0.6,0.4-1,0.9-1c0.5,0,0.9,0.4,0.9,1c0,0.5-0.4,1-0.9,1C776.2,349.5,775.8,349.1,775.8,348.6z      M775.8,354.1c0-0.6,0.4-1,0.9-1c0.5,0,0.9,0.4,0.9,1c0,0.5-0.4,1-0.9,1C776.2,355.1,775.8,354.6,775.8,354.1z" />
			<path
   id="path44"
   d="M789,349.7c0,3.5-1.3,5.4-3.5,5.4c-2,0-3.3-1.9-3.4-5.2c0-3.4,1.5-5.3,3.5-5.3C787.8,344.5,789,346.5,789,349.7z      M783.5,349.8c0,2.6,0.8,4.1,2.1,4.1c1.4,0,2.1-1.6,2.1-4.2c0-2.5-0.6-4.1-2.1-4.1C784.4,345.6,783.5,347.1,783.5,349.8z" />
			<path
   id="path46"
   d="M804,344.3h1.4v5.1h0c0.3-0.4,0.6-0.8,0.8-1.1l3.2-4h1.7l-3.8,4.5l4.1,6.1h-1.6l-3.5-5.2l-1,1.2v4H804V344.3z" />
			<path
   id="path48"
   d="M812.5,348.6c0-0.6,0.4-1,0.9-1c0.5,0,0.9,0.4,0.9,1c0,0.5-0.4,1-0.9,1C812.9,349.5,812.5,349.1,812.5,348.6z      M812.5,354.1c0-0.6,0.4-1,0.9-1c0.5,0,0.9,0.4,0.9,1c0,0.5-0.4,1-0.9,1C812.9,355.1,812.5,354.6,812.5,354.1z" />
			<path
   id="path50"
   d="M825.7,349.7c0,3.5-1.3,5.4-3.5,5.4c-2,0-3.3-1.9-3.4-5.2c0-3.4,1.5-5.3,3.5-5.3C824.5,344.5,825.7,346.5,825.7,349.7z      M820.2,349.8c0,2.6,0.8,4.1,2.1,4.1c1.4,0,2.1-1.6,2.1-4.2c0-2.5-0.6-4.1-2.1-4.1C821.1,345.6,820.2,347.1,820.2,349.8z" />
		</g>
	</g>
	<g
   id="g90">
		<g
   id="g58">
			<rect
   id="rect56"
   height="45.8"
   width="49.9"
   class="st0"
   y="327.8"
   x="890.5" />
		</g>
		<g
   id="g88">
			<path
   id="path60"
   d="M953.8,355.7c-0.5,0.3-1.5,0.5-2.8,0.5c-3,0-5.3-1.9-5.3-5.4c0-3.4,2.3-5.6,5.6-5.6c1.3,0,2.2,0.3,2.6,0.5l-0.3,1.1     c-0.5-0.3-1.3-0.4-2.2-0.4c-2.5,0-4.2,1.6-4.2,4.4c0,2.6,1.5,4.3,4.1,4.3c0.8,0,1.7-0.2,2.3-0.4L953.8,355.7z" />
			<path
   id="path62"
   d="M955.2,349.6c0-0.6,0.4-1,1-1s0.9,0.4,0.9,1c0,0.6-0.4,1-1,1C955.5,350.6,955.2,350.2,955.2,349.6z M955.2,355.3     c0-0.6,0.4-1,1-1s0.9,0.4,0.9,1c0,0.6-0.4,1-1,1C955.5,356.3,955.2,355.8,955.2,355.3z" />
			<path
   id="path64"
   d="M968.5,345.7v0.9l-4.5,9.4h-1.5l4.5-9.2v0h-5.1v-1.2H968.5z" />
			<path
   id="path66"
   d="M976.1,346.9h-4l-0.4,2.7c0.2,0,0.5-0.1,0.8-0.1c0.8,0,1.6,0.2,2.2,0.6c0.8,0.5,1.5,1.4,1.5,2.7c0,2-1.6,3.5-3.9,3.5     c-1.1,0-2.1-0.3-2.6-0.6l0.4-1.1c0.4,0.3,1.3,0.6,2.2,0.6c1.3,0,2.5-0.9,2.5-2.2c0-1.3-0.9-2.3-3-2.3c-0.6,0-1.1,0.1-1.4,0.1     l0.7-5h5V346.9z" />
			<path
   id="path68"
   d="M997.8,351.4c-0.1-1.5-0.2-3.3-0.2-4.6h0c-0.4,1.3-0.8,2.6-1.4,4.1l-1.9,5.2h-1.1l-1.7-5.1c-0.5-1.5-0.9-2.9-1.2-4.2h0     c0,1.3-0.1,3.1-0.2,4.8l-0.3,4.6h-1.3l0.7-10.8h1.8l1.8,5.2c0.4,1.3,0.8,2.5,1.1,3.6h0c0.3-1.1,0.7-2.3,1.1-3.6l1.9-5.2h1.8     l0.7,10.8h-1.4L997.8,351.4z" />
			<path
   id="path70"
   d="M1001.2,349.6c0-0.6,0.4-1,1-1s0.9,0.4,0.9,1c0,0.6-0.4,1-1,1C1001.6,350.6,1001.2,350.2,1001.2,349.6z M1001.2,355.3     c0-0.6,0.4-1,1-1s0.9,0.4,0.9,1c0,0.6-0.4,1-1,1C1001.6,356.3,1001.2,355.8,1001.2,355.3z" />
			<path
   id="path72"
   d="M1007.7,353.4c0-1.3,0.8-2.2,2.1-2.8l0,0c-1.1-0.5-1.6-1.4-1.6-2.3c0-1.6,1.4-2.8,3.2-2.8c2,0,3,1.3,3,2.6     c0,0.9-0.4,1.8-1.7,2.4v0c1.3,0.5,2.1,1.4,2.1,2.7c0,1.8-1.5,3-3.5,3C1009,356.3,1007.7,355,1007.7,353.4z M1013.2,353.4     c0-1.3-0.9-1.9-2.3-2.3c-1.2,0.4-1.9,1.1-1.9,2.1c0,1.1,0.7,2,2.1,2C1012.4,355.2,1013.2,354.5,1013.2,353.4z M1009.4,348.2     c0,1,0.8,1.6,2,1.9c0.9-0.3,1.6-0.9,1.6-1.9c0-0.8-0.5-1.7-1.8-1.7C1010,346.5,1009.4,347.3,1009.4,348.2z" />
			<path
   id="path74"
   d="M1022.2,346.9h-4l-0.4,2.7c0.2,0,0.5-0.1,0.8-0.1c0.8,0,1.6,0.2,2.2,0.6c0.8,0.5,1.5,1.4,1.5,2.7c0,2-1.6,3.5-3.9,3.5     c-1.1,0-2.1-0.3-2.6-0.6l0.4-1.1c0.4,0.3,1.3,0.6,2.2,0.6c1.3,0,2.5-0.9,2.5-2.2c0-1.3-0.9-2.3-3-2.3c-0.6,0-1.1,0.1-1.4,0.1     l0.7-5h5V346.9z" />
			<path
   id="path76"
   d="M1036.5,356.1v-4.6l-3.4-6.2h1.6l1.5,3c0.4,0.8,0.7,1.5,1.1,2.2h0c0.3-0.7,0.7-1.4,1.1-2.2l1.5-3h1.6l-3.6,6.2v4.6     H1036.5z" />
			<path
   id="path78"
   d="M1041.8,349.6c0-0.6,0.4-1,1-1s0.9,0.4,0.9,1c0,0.6-0.4,1-1,1C1042.2,350.6,1041.8,350.2,1041.8,349.6z M1041.8,355.3     c0-0.6,0.4-1,1-1s0.9,0.4,0.9,1c0,0.6-0.4,1-1,1C1042.2,356.3,1041.8,355.8,1041.8,355.3z" />
			<path
   id="path80"
   d="M1055.3,350.8c0,3.5-1.3,5.5-3.6,5.5c-2,0-3.4-1.9-3.4-5.3c0-3.5,1.5-5.4,3.6-5.4C1054,345.5,1055.3,347.5,1055.3,350.8z      M1049.6,350.9c0,2.7,0.8,4.2,2.1,4.2c1.4,0,2.1-1.7,2.1-4.3c0-2.6-0.7-4.2-2.1-4.2C1050.5,346.6,1049.6,348.1,1049.6,350.9z" />
			<path
   id="path82"
   d="M1070.6,345.3h1.4v5.2h0c0.3-0.4,0.6-0.8,0.8-1.1l3.3-4h1.7l-3.9,4.6l4.2,6.2h-1.6l-3.5-5.3l-1,1.2v4.1h-1.4V345.3z" />
			<path
   id="path84"
   d="M1079.2,349.6c0-0.6,0.4-1,1-1c0.6,0,0.9,0.4,0.9,1c0,0.6-0.4,1-1,1C1079.6,350.6,1079.2,350.2,1079.2,349.6z      M1079.2,355.3c0-0.6,0.4-1,1-1c0.6,0,0.9,0.4,0.9,1c0,0.6-0.4,1-1,1C1079.6,356.3,1079.2,355.8,1079.2,355.3z" />
			<path
   id="path86"
   d="M1092.7,350.8c0,3.5-1.3,5.5-3.6,5.5c-2,0-3.4-1.9-3.4-5.3c0-3.5,1.5-5.4,3.6-5.4     C1091.4,345.5,1092.7,347.5,1092.7,350.8z M1087.1,350.9c0,2.7,0.8,4.2,2.1,4.2c1.4,0,2.1-1.7,2.1-4.3c0-2.6-0.7-4.2-2.1-4.2     C1087.9,346.6,1087.1,348.1,1087.1,350.9z" />
		</g>
	</g>
</g>
<g
   id="g108">
	<path
   id="path94"
   d="M208.9,0h103.3c5.7,0,10.3,4.7,10.3,10.3v103.9c0,5.7-4.7,10.3-10.3,10.3h-83.5l-23.6,23.6   c-5.3,4.7-6.5-0.7-6.5-3c0-1.4,0-0.2,0-0.4v-20.3h0V10.2C198.6,4.6,203.2,0,208.9,0L208.9,0L208.9,0z"
   class="st0" />
	<path
   id="path96"
   d="M10.5,0h173.6c5.5,0,10.1,4.5,10.1,10.1v113.4c0,0.1,0,0.1,0,0.2V145c0,0.1,0,0.3,0,0.4c0,2.6-1.8,6.9-6.2,3.2   l-25.3-24H10.5C4.7,124.5,0,119.8,0,114V10.5C0,4.7,4.7,0,10.5,0L10.5,0L10.5,0z"
   class="st1" />
	<path
   id="path98"
   d="M233.7,59.7c-0.4,0.1-1,0.2-1.6,0.2c-0.6,0.1-1.2,0.1-1.9,0.2c-0.7,0-1.3,0.1-1.9,0.1c-1,0-1.8-0.1-2.6-0.2   c-0.7-0.2-1.4-0.5-1.9-0.9c-0.5-0.4-0.9-1.1-1.1-1.9c-0.2-0.8-0.4-1.9-0.4-3.3V53c0-1.6,0.1-3,0.4-4c0.3-1,0.7-1.8,1.2-2.4   c0.5-0.6,1.1-1,1.7-1.2c0.7-0.2,1.4-0.3,2.2-0.3c1.1,0,2,0.1,2.7,0.4c0.7,0.3,1.3,0.7,1.8,1.4c0.5,0.7,0.8,1.7,1,2.9   c0.2,1.3,0.3,2.9,0.3,4.9V59.7L233.7,59.7z M249.1,70.5V54.7c0-4.7-0.8-8.6-2.5-11.8c-1.7-3.2-4.1-5.6-7.2-7.2   c-3.1-1.6-6.9-2.5-11.4-2.5c-3.5,0-6.5,0.5-9.1,1.4c-2.6,0.9-4.8,2.3-6.5,4c-1.7,1.7-3.1,3.8-3.9,6.2c-0.9,2.4-1.3,5.1-1.3,8.2v0.8   c0,3.2,0.4,5.9,1.2,8.1c0.8,2.2,1.9,3.9,3.5,5.2c1.6,1.3,3.5,2.2,5.9,2.8c2.3,0.6,5.1,0.9,8.3,0.8c0.6,0,1.2,0,2-0.1   c0.7-0.1,1.5-0.1,2.3-0.2c0.8-0.1,1.5-0.2,2.1-0.3c0.6-0.1,1.2-0.2,1.5-0.2v0.5c0,1.8-0.1,3.2-0.3,4.4c-0.2,1.2-0.7,2.1-1.3,2.7   c-0.6,0.7-1.5,1.1-2.6,1.4c-1.1,0.3-2.5,0.4-4.2,0.4c-1.5,0-3.1-0.1-4.8-0.2c-1.7-0.1-3.3-0.2-4.8-0.4c-1.6-0.2-2.9-0.3-4.2-0.5   c-0.1,0-0.1,0-0.2,0c0,0-0.1,0-0.2,0c-0.4,0-0.8,0.1-1,0.4c-0.2,0.3-0.4,0.7-0.4,1.2V88c0,0.5,0.1,0.8,0.3,1.1   c0.2,0.3,0.7,0.5,1.4,0.7c1.8,0.5,4.1,1,6.8,1.4c2.7,0.4,5.8,0.6,9.3,0.6c3,0,5.8-0.4,8.4-1.2c2.6-0.8,4.9-2,6.8-3.7   c2-1.7,3.5-3.9,4.6-6.6C248.5,77.6,249.1,74.4,249.1,70.5L249.1,70.5L249.1,70.5z"
   class="st2" />
	<path
   id="path100"
   d="M292.3,43v-7.1c0-0.6-0.2-1.1-0.6-1.4c-0.4-0.4-0.9-0.6-1.5-0.6h-34.6c-0.4,0-0.8,0.1-1.1,0.4   c-0.3,0.3-0.5,0.6-0.5,1.1v9.5c0,0.4,0.2,0.8,0.5,1c0.3,0.3,0.7,0.4,1.1,0.4h19c0.1,0,0.3,0,0.4,0.1c0.2,0.1,0.3,0.2,0.3,0.3v0.1   l-20.1,42.6c0,0.1-0.1,0.2-0.1,0.2c0,0.1-0.1,0.2-0.1,0.3c0,0.3,0.1,0.6,0.4,0.8c0.3,0.2,0.7,0.3,1.1,0.3h13.2   c0.5,0,0.8-0.2,1.1-0.4c0.3-0.3,0.5-0.6,0.7-1.1l19.7-43.1c0.3-0.6,0.5-1.1,0.7-1.7C292.2,44.2,292.3,43.6,292.3,43L292.3,43   L292.3,43z"
   class="st2" />
	<path
   id="path102"
   d="M63.3,65.9c0,3.9-0.7,6.8-2.2,8.8c-1.5,2-3.6,3-6.4,3c-2.8,0-4.9-1-6.4-3c-1.5-2-2.2-4.9-2.2-8.8v-6.7   c0-3.9,0.8-6.8,2.2-8.8c1.5-2,3.6-2.9,6.4-2.9c2.8,0,4.9,1,6.4,2.9c1.4,2,2.2,4.9,2.2,8.8V65.9L63.3,65.9z M78.7,65.9v-6.7   c0-5.1-0.9-9.5-2.8-13.3c-1.8-3.7-4.5-6.6-8.1-8.6c-3.6-2-7.9-3-13.1-3.1c-5.2,0-9.6,1.1-13.2,3.1c-3.6,2-6.3,4.9-8.1,8.6   c-1.9,3.7-2.8,8.1-2.8,13.3v6.7c0,5.1,0.9,9.5,2.8,13.2c1.8,3.7,4.6,6.6,8.1,8.6c3.6,2,8,3,13.2,3.1c5.2,0,9.6-1,13.1-3.1   c3.6-2,6.3-4.9,8.1-8.6C77.8,75.4,78.7,71,78.7,65.9L78.7,65.9L78.7,65.9z"
   class="st2" />
	<path
   id="path104"
   d="M132.4,88.4v-32c0-3-0.2-5.9-0.7-8.5c-0.5-2.6-1.3-4.9-2.6-6.9c-1.2-2-3-3.5-5.2-4.7c-2.2-1.1-5.1-1.7-8.5-1.7   c-2,0-3.9,0.1-5.6,0.5c-1.7,0.3-3.4,0.8-5,1.6c-1.6,0.7-3.3,1.7-5,3v-2.3c0-0.5-0.2-1-0.6-1.4c-0.4-0.4-0.8-0.5-1.4-0.6H87.1   c-0.5,0-1,0.2-1.4,0.6c-0.4,0.4-0.5,0.8-0.6,1.4v51c0,0.5,0.2,1,0.6,1.4c0.4,0.4,0.9,0.6,1.4,0.6h11.6c0.5,0,1-0.2,1.4-0.6   c0.4-0.4,0.5-0.9,0.6-1.4V50.6c1.6-0.9,3.2-1.6,4.7-2.2c1.5-0.6,2.9-0.9,4.3-0.9c1.9,0,3.4,0.3,4.4,0.8c1,0.6,1.7,1.5,2.1,2.8   c0.4,1.3,0.6,3.1,0.5,5.3v32c0,0.5,0.2,1,0.6,1.4c0.4,0.4,0.8,0.6,1.4,0.6h11.6c0.5,0,1-0.2,1.4-0.6   C132.2,89.4,132.4,88.9,132.4,88.4L132.4,88.4L132.4,88.4z"
   class="st2" />
	<path
   id="path106"
   d="M186.4,65.1v-5.6c0-3.7-0.5-7-1.5-10.1c-1-3.1-2.5-5.7-4.5-8c-2-2.3-4.5-4-7.4-5.3c-3-1.2-6.4-1.9-10.4-1.9   c-5.1,0-9.5,1.1-13.1,3.1c-3.6,2.1-6.4,5-8.3,8.7c-1.9,3.8-2.9,8.3-2.9,13.5v6.7c0,3.7,0.5,6.9,1.4,9.7c0.9,2.8,2.2,5.1,3.8,7   c1.6,1.9,3.4,3.5,5.5,4.7c2.1,1.2,4.3,2,6.6,2.6c2.3,0.5,4.6,0.8,7,0.8c2.8,0,5.3-0.1,7.5-0.3c2.2-0.2,4.3-0.4,6.3-0.8   c2-0.3,4-0.8,6-1.3c0.8-0.2,1.3-0.5,1.6-0.9c0.3-0.4,0.4-1,0.4-1.7v-7.3c0-0.5-0.2-0.9-0.5-1.2c-0.3-0.2-0.8-0.4-1.3-0.4   c-0.1,0-0.2,0-0.3,0c-1,0.1-2.2,0.2-3.7,0.3c-1.5,0.1-3,0.2-4.7,0.3c-1.7,0.1-3.4,0.2-5.2,0.2c-1.7,0-3.4,0.1-4.9,0.1   c-1.9,0-3.5-0.3-4.8-0.9c-1.3-0.6-2.3-1.4-3-2.3c-0.8-1-1.3-2.1-1.6-3.4c-0.3-1.2-0.5-2.6-0.5-3.9v-0.2h30.7c0.6,0,1.1-0.2,1.5-0.6   C186.2,66.4,186.4,65.8,186.4,65.1L186.4,65.1z M171.2,57.8h-17.5v-0.4c0-2.3,0.4-4.3,1.1-5.9c0.7-1.6,1.8-2.8,3.1-3.6   c1.3-0.8,2.9-1.2,4.7-1.2c2.7,0,4.8,0.9,6.4,2.7c1.5,1.8,2.3,4.5,2.3,8V57.8L171.2,57.8z"
   class="st3" />
</g>
</svg>