<?xml version="1.0" encoding="UTF-8" standalone="no"?>
<svg
   xmlns:dc="http://purl.org/dc/elements/1.1/"
   xmlns:cc="http://creativecommons.org/ns#"
   xmlns:rdf="http://www.w3.org/1999/02/22-rdf-syntax-ns#"
   xmlns:svg="http://www.w3.org/2000/svg"
   xmlns="http://www.w3.org/2000/svg"
   id="svg22"
   version="1.1"
   viewBox="0 0 449 142"
   height="142"
   width="449">
  <metadata
     id="metadata26">
    <rdf:RDF>
      <cc:Work
         rdf:about="">
        <dc:format>image/svg+xml</dc:format>
        <dc:type
           rdf:resource="http://purl.org/dc/dcmitype/StillImage" />
      </cc:Work>
    </rdf:RDF>
  </metadata>
  <defs
     id="defs7">
    <style
       id="style2">.a{clip-path:url(#b);}.b{fill:#00bcf1;}.c{fill:#213368;}</style>
    <clipPath
       id="b">
      <rect
         id="rect4"
         height="142"
         width="449" />
    </clipPath>
  </defs>
  <g
     clip-path="url(#b)"
     class="a"
     id="a">
    <g
       id="g19"
       transform="translate(-50.235 -33.937)">
      <path
         id="path9"
         transform="translate(254.269 16.691)"
         d="M243.277,59.11a29.963,29.963,0,0,0-28.251-20.039h-.286a29.847,29.847,0,0,0-21.574,9.205,29.832,29.832,0,0,0-21.574-9.205h-.268a29.809,29.809,0,0,0-19.516,7.25V44.034a4.411,4.411,0,0,0-4.385-4.1H127.4a4.435,4.435,0,0,0-4.426,4.435V153.108a4.43,4.43,0,0,0,4.426,4.439h20.021a4.419,4.419,0,0,0,4.368-3.831l-.013-78.054c0-.26.013-.519.031-.783a7.292,7.292,0,0,1,6.905-6.7h3.7a7.659,7.659,0,0,1,4.224,1.629,7.387,7.387,0,0,1,2.712,5.853l.067,77.678a4.442,4.442,0,0,0,4.439,4.43h20.021a4.409,4.409,0,0,0,4.395-4.215l-.013-77.986a7.349,7.349,0,0,1,3.267-6.261,7.933,7.933,0,0,1,3.692-1.235H208.9a7.336,7.336,0,0,1,6.936,7.5l.076,77.561a4.434,4.434,0,0,0,4.426,4.444h20.012a4.439,4.439,0,0,0,4.435-4.444V69.712c0-5.692-.649-8.109-1.508-10.6"
         class="b" />
      <path
         id="path11"
         transform="translate(198.731 0)"
         d="M163.258,56.916H151.806V38.363h0v-.049a4.036,4.036,0,0,0-4.032-4.045,3.946,3.946,0,0,0-.774.085c-12.7,3.482-10.154,21.068-33.321,22.563h-2.26a4.57,4.57,0,0,0-.967.116h-.009a4.429,4.429,0,0,0-3.45,4.314V81.359a4.431,4.431,0,0,0,4.426,4.444h12.087l-.018,84.883a4.373,4.373,0,0,0,4.385,4.386h19.789a4.366,4.366,0,0,0,4.368-4.386l.013-84.883h11.214a4.43,4.43,0,0,0,4.421-4.444V61.346a4.424,4.424,0,0,0-4.421-4.43"
         class="b" />
      <path
         id="path13"
         transform="translate(131.217 17.587)"
         d="M158.736,39.329H138.719a4.437,4.437,0,0,0-4.439,4.43v41.4a4.681,4.681,0,0,1-4.676,4.623h-8.386a4.691,4.691,0,0,1-4.694-4.694l-.085-41.331a4.42,4.42,0,0,0-4.417-4.43H91.991a4.425,4.425,0,0,0-4.426,4.43V89.132c0,17.233,12.284,29.522,29.531,29.522,0,0,12.946,0,13.349.081A4.664,4.664,0,0,1,130.5,128c-.107.013-.2.04-.322.054l-29.289.1a4.432,4.432,0,0,0-4.43,4.43V152.61a4.427,4.427,0,0,0,4.43,4.421h32.735c17.242,0,29.535-12.279,29.535-29.526V43.759a4.428,4.428,0,0,0-4.426-4.43"
         class="c" />
      <path
         id="path15"
         transform="translate(0 17.587)"
         d="M97.907,39.329H54.141A4.34,4.34,0,0,0,49.8,43.665V63.284l0,.076c0,.13,0,.219,0,.322v88.776A4.321,4.321,0,0,0,53.85,156.9h20.4a4.436,4.436,0,0,0,4.435-4.43l.072-30.435H97.907c16.034,0,27.217-11.107,27.217-27.217V66.586c0-16.1-11.183-27.257-27.217-27.257M96.148,76.015v12.36a4.689,4.689,0,0,1-4.69,4.69l-12.7.018V68.314h12.7a4.687,4.687,0,0,1,4.69,4.694Z"
         class="c" />
      <path
         id="path17"
         transform="translate(63.944 17.678)"
         d="M112.088,39.355H84.321A4.309,4.309,0,0,0,79.868,43.5v7.787a.694.694,0,0,0,.009.112l-.009.215V62.281a4.567,4.567,0,0,0,4.717,4.4l26.456.009a4.591,4.591,0,0,1,3.978,4.229V73.5a4.45,4.45,0,0,1-3.875,4.113H98.055c-17.43,0-29.849,11.577-29.849,27.826v23.293c0,16.159,10.673,27.647,27.978,27.647H132.49c6.511,0,11.805-4.927,11.805-11V69.409c0-18.428-9.509-30.054-32.207-30.054m3.2,83.58v3.124a4.337,4.337,0,0,1-.081.738,4.284,4.284,0,0,1-.183.644v0a4.69,4.69,0,0,1-4.457,3.012h-8.328a4.57,4.57,0,0,1-4.721-4.4v-3.781l-.009-.089.009-10.1v-3.168a4.571,4.571,0,0,1,4.721-4.386h8.328a4.58,4.58,0,0,1,4.721,4.408Z"
         class="c" />
    </g>
  </g>
</svg>
